<svg width="6" height="9" viewBox="0 0 6 9" fill="none" xmlns="http://www.w3.org/2000/svg">
<path d="M1.70711 0.292893C1.31658 -0.0976311 0.683417 -0.0976311 0.292893 0.292893C-0.0976311 0.683417 -0.0976311 1.31658 0.292893 1.70711L1.70711 0.292893ZM4.5 4.5L5.20711 5.20711C5.59763 4.81658 5.59763 4.18342 5.20711 3.79289L4.5 4.5ZM0.292893 7.29289C-0.0976311 7.68342 -0.0976311 8.31658 0.292893 8.70711C0.683417 9.09763 1.31658 9.09763 1.70711 8.70711L0.292893 7.29289ZM0.292893 1.70711L3.79289 5.20711L5.20711 3.79289L1.70711 0.292893L0.292893 1.70711ZM3.79289 3.79289L0.292893 7.29289L1.70711 8.70711L5.20711 5.20711L3.79289 3.79289Z" fill="#F480FF"/>
</svg>
