<svg width="22" height="42" viewBox="0 0 22 42" fill="none" xmlns="http://www.w3.org/2000/svg">
<path d="M1.70711 0.292893C1.31658 -0.0976311 0.683418 -0.0976311 0.292893 0.292893C-0.0976311 0.683418 -0.0976311 1.31658 0.292893 1.70711L1.70711 0.292893ZM21 21L21.7071 21.7071C22.0976 21.3166 22.0976 20.6834 21.7071 20.2929L21 21ZM0.292893 40.2929C-0.0976311 40.6834 -0.0976311 41.3166 0.292893 41.7071C0.683418 42.0976 1.31658 42.0976 1.70711 41.7071L0.292893 40.2929ZM0.292893 1.70711L20.2929 21.7071L21.7071 20.2929L1.70711 0.292893L0.292893 1.70711ZM20.2929 20.2929L0.292893 40.2929L1.70711 41.7071L21.7071 21.7071L20.2929 20.2929Z" fill="#5B4963"/>
</svg>
