<svg width="22" height="42" viewBox="0 0 22 42" fill="none" xmlns="http://www.w3.org/2000/svg">
<path d="M20.2929 0.292893C20.6834 -0.0976311 21.3166 -0.0976311 21.7071 0.292893C22.0976 0.683418 22.0976 1.31658 21.7071 1.70711L20.2929 0.292893ZM1 21L0.292893 21.7071C-0.0976311 21.3166 -0.0976311 20.6834 0.292893 20.2929L1 21ZM21.7071 40.2929C22.0976 40.6834 22.0976 41.3166 21.7071 41.7071C21.3166 42.0976 20.6834 42.0976 20.2929 41.7071L21.7071 40.2929ZM21.7071 1.70711L1.70711 21.7071L0.292893 20.2929L20.2929 0.292893L21.7071 1.70711ZM1.70711 20.2929L21.7071 40.2929L20.2929 41.7071L0.292893 21.7071L1.70711 20.2929Z" fill="#5B4963"/>
</svg>
