<svg width="20" height="19" viewBox="0 0 20 19" fill="none" xmlns="http://www.w3.org/2000/svg">
<path d="M16 15C14.89 15 14 15.89 14 17C14 17.5304 14.2107 18.0391 14.5858 18.4142C14.9609 18.7893 15.4696 19 16 19C16.5304 19 17.0391 18.7893 17.4142 18.4142C17.7893 18.0391 18 17.5304 18 17C18 15.89 17.1 15 16 15ZM0 0V2H2L5.6 9.59L4.24 11.04C4.09 11.32 4 11.65 4 12C4 12.5304 4.21071 13.0391 4.58579 13.4142C4.96086 13.7893 5.46957 14 6 14H17V12H6.42C6.3537 12 6.29011 11.9737 6.24322 11.9268C6.19634 11.8799 6.17 11.8163 6.17 11.75C6.17 11.7 6.18 11.66 6.2 11.63L7.1 11H14.55C15.3 11 15.96 10.58 16.3 9.97L19.88 3.5C19.95 3.34 20 3.17 20 3C20 2.73478 19.8946 2.48043 19.7071 2.29289C19.5196 2.10536 19.2652 2 19 2H4.21L3.27 0H0ZM6 15C4.89 15 4 15.89 4 17C4 17.5304 4.21071 18.0391 4.58579 18.4142C4.96086 18.7893 5.46957 19 6 19C6.53043 19 7.03914 18.7893 7.41421 18.4142C7.78929 18.0391 8 17.5304 8 17C8 15.89 7.1 15 6 15Z" fill="white"/>
</svg>
