<svg width="24" height="24" viewBox="0 0 24 24" fill="none" xmlns="http://www.w3.org/2000/svg">
<path fill-rule="evenodd" clip-rule="evenodd" d="M12 24C18.6274 24 24 18.6274 24 12C24 5.37258 18.6274 0 12 0C5.37258 0 0 5.37258 0 12C0 18.6274 5.37258 24 12 24ZM10.3722 18.4777H12.8403V12.3285H14.904L15.2158 9.93612H12.8403V8.40321C12.8403 7.71243 13.0341 7.24058 14.028 7.24058H15.3V5.09257C15.1788 5.07853 14.8953 5.05177 14.5179 5.03049C14.2129 5.01338 13.8467 5 13.4553 5C11.6189 5 10.3722 6.12029 10.3722 8.16717V9.93612H8.3V12.3285H10.3722V18.4777Z" fill="#C66FD0"/>
</svg>
