<svg width="20" height="20" viewBox="0 0 20 20" fill="none" xmlns="http://www.w3.org/2000/svg">
<rect x="0.5" y="0.5" width="19" height="19" rx="1.5" stroke="#F8F5FA"/>
<path d="M10.5 9.75C10.1685 9.75 9.85054 9.6183 9.61612 9.38388C9.3817 9.14946 9.25 8.83152 9.25 8.5C9.25 8.16848 9.3817 7.85054 9.61612 7.61612C9.85054 7.3817 10.1685 7.25 10.5 7.25C10.8315 7.25 11.1495 7.3817 11.3839 7.61612C11.6183 7.85054 11.75 8.16848 11.75 8.5C11.75 8.66415 11.7177 8.8267 11.6548 8.97835C11.592 9.13001 11.5 9.26781 11.3839 9.38388C11.2678 9.49996 11.13 9.59203 10.9784 9.65485C10.8267 9.71767 10.6642 9.75 10.5 9.75V9.75ZM10.5 5C9.57174 5 8.6815 5.36875 8.02513 6.02513C7.36875 6.6815 7 7.57174 7 8.5C7 11.125 10.5 15 10.5 15C10.5 15 14 11.125 14 8.5C14 7.57174 13.6313 6.6815 12.9749 6.02513C12.3185 5.36875 11.4283 5 10.5 5V5Z" fill="#F8F5FA"/>
</svg>
