<svg width="40" height="40" viewBox="0 0 40 40" fill="none" xmlns="http://www.w3.org/2000/svg">
<path d="M26.9706 10V9.5H26.4706H13.5294H13.0294V10V14.838L9.735 16.897L9.5 17.0439V17.321V30V30.5H10H30H30.5V30V17.321V17.0439L30.265 16.897L26.9706 14.838V10ZM24.7353 15.7059V15.2059H24.2353H16H15.5V15.7059V16.8824V17.3824H16H24.2353H24.7353V16.8824V15.7059ZM16 12.5H15.5V13V14.1765V14.6765H16H24.2353H24.7353V14.1765V13V12.5H24.2353H16ZM24.7353 18.6471V18.1471H24.2353H16H15.5V18.6471V19.7033L15.2059 19.5011V11.6765H24.7941V19.5011L24.7353 19.5415V18.6471ZM16.4022 20.3235H23.5978L20 22.797L16.4022 20.3235ZM39.5 20C39.5 30.7696 30.7696 39.5 20 39.5C9.23045 39.5 0.5 30.7696 0.5 20C0.5 9.23045 9.23045 0.5 20 0.5C30.7696 0.5 39.5 9.23045 39.5 20ZM26.9706 17.4046L27.4278 17.6904L26.9706 18.0048V17.4046ZM13.0294 17.4046V18.0047L12.5722 17.6904L13.0294 17.4046Z" fill="#09000D" stroke="#C66FD0"/>
</svg>
