<svg width="30" height="30" viewBox="0 0 30 30" fill="none" xmlns="http://www.w3.org/2000/svg">
<circle cx="15" cy="15" r="15" fill="#09000D"/>
<path d="M25 8.92858C24.2645 9.25449 23.4744 9.47469 22.6438 9.57423C23.5008 9.0614 24.142 8.25428 24.4477 7.30346C23.6425 7.78174 22.7612 8.11839 21.8422 8.29879C21.2242 7.63894 20.4057 7.20157 19.5136 7.0546C18.6216 6.90764 17.706 7.05929 16.909 7.48601C16.1119 7.91274 15.4781 8.59066 15.1058 9.41454C14.7336 10.2384 14.6437 11.1621 14.8503 12.0423C13.2187 11.9604 11.6226 11.5363 10.1655 10.7976C8.70847 10.0589 7.42301 9.02209 6.39258 7.75444C6.04025 8.36221 5.83766 9.06687 5.83766 9.81733C5.83727 10.4929 6.00364 11.1582 6.32201 11.754C6.64038 12.3499 7.10091 12.858 7.66273 13.2332C7.01117 13.2124 6.37397 13.0364 5.80419 12.7196V12.7725C5.80413 13.72 6.13189 14.6384 6.73186 15.3718C7.33184 16.1052 8.16707 16.6084 9.09583 16.7961C8.4914 16.9597 7.85769 16.9838 7.24258 16.8666C7.50462 17.6819 8.01506 18.3948 8.70243 18.9056C9.3898 19.4164 10.2197 19.6995 11.0759 19.7152C9.62242 20.8562 7.82735 21.4751 5.97948 21.4724C5.65215 21.4725 5.32509 21.4534 5 21.4151C6.87569 22.6212 9.05914 23.2612 11.2891 23.2587C18.8378 23.2587 22.9644 17.0066 22.9644 11.5843C22.9644 11.4081 22.96 11.2302 22.9521 11.054C23.7548 10.4735 24.4476 9.7547 24.9982 8.93122L25 8.92858V8.92858Z" fill="#C66FD0"/>
</svg>
