<svg width="24" height="24" viewBox="0 0 24 24" fill="none" xmlns="http://www.w3.org/2000/svg">
<path fill-rule="evenodd" clip-rule="evenodd" d="M12 24C18.6274 24 24 18.6274 24 12C24 5.37258 18.6274 0 12 0C5.37258 0 0 5.37258 0 12C0 18.6274 5.37258 24 12 24ZM5.00003 11.9648C4.98881 8.26342 7.92708 5.18416 11.6517 5.0088C15.7445 4.81521 19.1106 8.11542 18.983 12.1662C18.8644 15.9433 15.6912 18.944 11.8845 18.8858C10.8415 18.8714 9.81482 18.6241 8.87962 18.162L5.34864 18.9924C5.30427 19.0031 5.25792 19.0025 5.21387 18.9905C5.16983 18.9785 5.12951 18.9557 5.09665 18.924C5.06379 18.8923 5.03944 18.8529 5.02586 18.8093C5.01229 18.7657 5.00992 18.7194 5.01897 18.6747L5.76108 15.0967C5.26273 14.1278 5.00188 13.0544 5.00003 11.9648ZM14.0879 16.9696C14.7523 16.6964 15.3562 16.2947 15.8651 15.7876C16.8906 14.7699 17.4693 13.3831 17.4693 11.9438C17.4707 11.2287 17.3296 10.5204 17.0542 9.86041C16.7787 9.20042 16.3745 8.60196 15.8651 8.09999C14.8312 7.0731 13.4564 6.50775 11.9933 6.50775C10.5432 6.5082 9.15191 7.08061 8.12138 8.10069C7.08748 9.12688 6.51792 10.4926 6.51792 11.9445C6.51528 12.8026 6.7193 13.6488 7.11273 14.4114L7.35542 14.8828L6.8995 17.0789L9.0648 16.5697L9.5565 16.8131C10.3138 17.1884 11.148 17.3825 11.9933 17.3799C12.7116 17.3822 13.4234 17.2428 14.0879 16.9696ZM14.033 13.0633L15.3875 13.4491C15.4628 13.4701 15.5322 13.5086 15.59 13.5613C15.6478 13.6141 15.6924 13.6797 15.7202 13.7528C15.7481 13.826 15.7584 13.9046 15.7503 13.9825C15.7422 14.0603 15.7159 14.1352 15.6736 14.201C15.4092 14.6155 14.9883 15.1227 14.4623 15.2489C13.5357 15.4727 12.1111 15.2545 10.333 13.6069C8.79405 12.1802 8.38722 10.9927 8.48332 10.0507C8.53733 9.51547 8.98624 9.03359 9.36431 8.71584C9.42429 8.66531 9.49518 8.62939 9.57139 8.61088C9.64761 8.59238 9.72708 8.59181 9.80355 8.60921C9.88003 8.62661 9.95143 8.66152 10.0121 8.71118C10.0728 8.76084 10.1212 8.8239 10.1534 8.89541L10.723 10.1748C10.7598 10.2574 10.7734 10.3484 10.7624 10.4381C10.7514 10.5278 10.7162 10.6128 10.6605 10.684L10.3716 11.0558C10.3117 11.1321 10.2759 11.2245 10.2689 11.3212C10.2619 11.418 10.284 11.5146 10.3323 11.5987C10.6767 12.1942 12.0248 13.3838 12.6652 13.6413C12.7558 13.6774 12.855 13.686 12.9504 13.666C13.0459 13.6461 13.1333 13.5984 13.2018 13.529L13.5329 13.1937C13.5969 13.1292 13.6771 13.083 13.7651 13.06C13.8531 13.0371 13.9456 13.0382 14.033 13.0633Z" fill="#C66FD0"/>
</svg>
