<svg width="84" height="20" viewBox="0 0 84 20" fill="none" xmlns="http://www.w3.org/2000/svg">
<path fill-rule="evenodd" clip-rule="evenodd" d="M65.1292 4.89407C64.4995 5.39265 63.991 6.03685 63.6224 6.75665C63.1521 7.67474 62.9095 8.7158 62.9336 9.73452C62.9342 9.75997 62.935 9.78541 62.9359 9.81085C62.9377 9.85828 62.94 9.9057 62.9429 9.95301C62.9965 10.3869 63.05 10.8208 63.2017 11.2546C63.3266 11.7752 63.5676 12.2959 63.8353 12.7558C64.799 14.257 66.4677 15.333 68.2613 15.5499C70.1709 15.7842 72.2144 15.4458 73.6779 14.1615C75.3108 12.7211 75.8819 10.4129 75.0431 8.43446L74.9271 8.20882C74.7397 7.80969 74.24 7.11551 74.24 7.11551C74.0719 6.90226 73.8738 6.71232 73.6802 6.5266C73.6374 6.48555 73.5949 6.44474 73.5529 6.40393C73.284 6.16977 72.9988 5.96541 72.7145 5.76164C72.367 5.51271 72.0197 5.26396 71.7057 4.96349C71.1013 4.38751 70.7107 3.64114 70.5443 2.84757C70.3445 1.89552 70.4671 0.875489 70.9294 0C70.0817 0.199598 69.341 0.650807 68.7075 1.14539C68.4371 1.35655 68.1859 1.58659 67.9549 1.83254C67.1012 2.74128 66.5223 3.86772 66.2664 5.06406C66.2437 5.16999 66.2236 5.27653 66.206 5.38348C66.1673 5.61936 66.141 5.85739 66.1276 6.09649C66.1073 6.46005 66.1166 6.82612 66.1569 7.19076C66.1623 7.24009 66.1683 7.28948 66.1749 7.33876C66.2326 7.77007 66.3339 8.19864 66.4811 8.61803L66.4954 8.65843C66.514 8.71038 66.5333 8.76216 66.5533 8.81381C66.5604 8.83199 66.5675 8.85016 66.5748 8.86833C66.5928 8.91218 66.6108 8.95603 66.6243 9.00322C66.6374 9.0494 66.6461 9.09885 66.6461 9.15468C66.6461 9.34558 66.5123 9.51914 66.3338 9.58855C66.1286 9.6753 65.9144 9.62323 65.7449 9.4844C65.6913 9.44103 65.6556 9.39765 65.62 9.33688C65.6007 9.31316 65.5817 9.28927 65.5631 9.2652L65.5556 9.25543C65.53 9.22218 65.505 9.18864 65.4807 9.15468C65.474 9.14544 65.4674 9.13615 65.4608 9.12679C65.1511 8.68756 64.9385 8.19232 64.8226 7.67569C64.6151 6.75051 64.718 5.75687 65.1292 4.89407ZM68.5685 13.128C67.7963 13.0346 67.0205 12.6422 66.4369 12.0585C66.7174 12.0298 67.0061 11.9602 67.2976 11.8403C68.3086 11.4301 69.1452 10.4301 69.1452 9.15468C69.1452 8.55106 68.9462 8.08233 68.9001 7.97389L68.8977 7.96812C68.5491 7.0822 68.5341 6.11019 68.8007 5.21927C69.1048 5.7592 69.4908 6.26224 69.9585 6.70827C70.3823 7.11366 70.8222 7.43224 71.1388 7.65954L71.2165 7.71531C71.4987 7.91783 71.6812 8.04879 71.8451 8.18714C71.9028 8.24314 71.9514 8.29003 71.9929 8.32995C72.1244 8.4568 72.1836 8.51388 72.2319 8.57018L72.256 8.60468C72.298 8.66474 72.3552 8.74798 72.4164 8.84015C72.4786 8.93387 72.5386 9.02723 72.5881 9.10934C72.6294 9.17762 72.6494 9.21492 72.6548 9.22504C72.6559 9.22713 72.6563 9.22784 72.6563 9.22784L72.6739 9.26526L72.7619 9.43638C73.141 10.4133 72.8602 11.5925 72.0051 12.3484C71.2585 13.002 70.0385 13.3083 68.5728 13.1285L68.5685 13.128Z" fill="#F8F5FA"/>
<path d="M6.91136 3.45958V15.572C6.80203 15.6189 6.63803 15.6579 6.41937 15.6892C6.21632 15.736 5.99766 15.7595 5.76337 15.7595C5.27919 15.7595 4.93557 15.6736 4.73253 15.5018C4.52948 15.3143 4.42796 15.0098 4.42796 14.5881V3.45958H0.28114C0.203046 3.35025 0.132761 3.20968 0.070285 3.03788C0.0234283 2.86607 0 2.67083 0 2.45217C0 2.10855 0.0780945 1.85084 0.234283 1.67903C0.406091 1.4916 0.632565 1.39789 0.913706 1.39789H11.105C11.1675 1.4916 11.2222 1.62437 11.269 1.79617C11.3315 1.96798 11.3627 2.15541 11.3627 2.35845C11.3627 3.09254 11.0582 3.45958 10.449 3.45958H6.91136Z" fill="#F8F5FA"/>
<path d="M20.2943 8.77782C20.2943 7.91878 20.06 7.29403 19.5914 6.90355C19.1385 6.49746 18.5371 6.29442 17.7874 6.29442C17.2876 6.29442 16.8269 6.38032 16.4052 6.55213C15.9991 6.70832 15.6398 6.90355 15.3274 7.13784V15.572C15.2181 15.6189 15.0619 15.6579 14.8589 15.6892C14.6715 15.736 14.4606 15.7595 14.2263 15.7595C13.7734 15.7595 13.4376 15.6736 13.2189 15.5018C13.0002 15.3299 12.8909 15.041 12.8909 14.6349V0.4139C13.0002 0.382662 13.1564 0.343615 13.3595 0.296758C13.5625 0.249902 13.7812 0.226474 14.0155 0.226474C14.4684 0.226474 14.7964 0.312378 14.9995 0.484185C15.2181 0.655993 15.3274 0.944942 15.3274 1.35103V5.05271C15.6867 4.86529 16.1006 4.70129 16.5691 4.56072C17.0533 4.40453 17.5922 4.32643 18.1857 4.32643C19.5445 4.32643 20.6379 4.68567 21.4657 5.40414C22.3091 6.12261 22.7308 7.21593 22.7308 8.68411V15.572C22.6215 15.6189 22.4653 15.6579 22.2622 15.6892C22.0592 15.736 21.8483 15.7595 21.6297 15.7595C21.1611 15.7595 20.8175 15.6736 20.5988 15.5018C20.3958 15.3299 20.2943 15.041 20.2943 14.6349V8.77782Z" fill="#F8F5FA"/>
<path d="M27.1487 11.3784C27.3674 12.2686 27.7891 12.9324 28.4138 13.3698C29.0542 13.7915 29.8664 14.0023 30.8504 14.0023C31.5064 14.0023 32.1077 13.9008 32.6544 13.6978C33.201 13.4947 33.6384 13.2761 33.9663 13.0418C34.4037 13.2917 34.6223 13.6431 34.6223 14.0961C34.6223 14.3616 34.5208 14.6115 34.3178 14.8458C34.1147 15.0644 33.8336 15.2597 33.4743 15.4315C33.1307 15.5877 32.7168 15.7126 32.2326 15.8063C31.7641 15.9 31.2565 15.9469 30.7098 15.9469C29.8039 15.9469 28.9761 15.8219 28.2264 15.572C27.4923 15.3221 26.8597 14.9473 26.3287 14.4475C25.7977 13.9477 25.3838 13.3307 25.087 12.5966C24.8059 11.8626 24.6653 11.0113 24.6653 10.043C24.6653 9.10582 24.8059 8.28583 25.087 7.58297C25.3681 6.86451 25.7508 6.27099 26.235 5.80242C26.7192 5.31823 27.2893 4.95119 27.9453 4.70129C28.6013 4.45139 29.3041 4.32643 30.0538 4.32643C30.8035 4.32643 31.4829 4.45139 32.0921 4.70129C32.7168 4.93557 33.2479 5.27138 33.6852 5.70871C34.1382 6.13042 34.4818 6.63803 34.7161 7.23155C34.966 7.82507 35.0909 8.47325 35.0909 9.1761C35.0909 9.56658 34.9972 9.85553 34.8098 10.043C34.6223 10.2148 34.349 10.3319 33.9898 10.3944L27.1487 11.3784ZM30.0538 6.22413C29.1948 6.22413 28.4763 6.51308 27.8984 7.09098C27.3361 7.66888 27.0394 8.49668 27.0081 9.57438L32.7715 8.75439C32.709 8.05154 32.4513 7.45802 31.9984 6.97384C31.5454 6.47403 30.8972 6.22413 30.0538 6.22413Z" fill="#F8F5FA"/>
<path d="M49.0668 12.5966C49.0668 13.6431 48.6764 14.4631 47.8954 15.0566C47.1145 15.6501 45.9821 15.9469 44.4983 15.9469C43.8892 15.9469 43.3269 15.9 42.8115 15.8063C42.296 15.7126 41.8509 15.5799 41.476 15.408C41.1168 15.2362 40.8357 15.0332 40.6326 14.7989C40.4296 14.5646 40.3281 14.3069 40.3281 14.0258C40.3281 13.7915 40.3827 13.5728 40.4921 13.3698C40.617 13.1667 40.781 13.0027 40.9841 12.8778C41.4214 13.1589 41.9212 13.4166 42.4835 13.6509C43.0457 13.8852 43.7017 14.0023 44.4514 14.0023C45.1543 14.0023 45.6931 13.8852 46.068 13.6509C46.4429 13.401 46.6303 13.0496 46.6303 12.5966C46.6303 12.2062 46.4975 11.8938 46.232 11.6595C45.9821 11.4252 45.6072 11.2456 45.1074 11.1207L43.5143 10.6989C42.4522 10.4178 41.6713 10.0351 41.1715 9.55096C40.6717 9.06677 40.4218 8.40297 40.4218 7.55955C40.4218 7.1066 40.5155 6.68489 40.7029 6.29442C40.8903 5.88832 41.1637 5.54471 41.5229 5.26357C41.8978 4.96681 42.3585 4.74034 42.9052 4.58415C43.4518 4.41234 44.0766 4.32643 44.7794 4.32643C45.3417 4.32643 45.8493 4.37329 46.3023 4.467C46.7709 4.5451 47.1691 4.66224 47.4971 4.81843C47.8407 4.959 48.1063 5.13862 48.2937 5.35728C48.4811 5.57595 48.5748 5.81023 48.5748 6.06013C48.5748 6.31003 48.5202 6.5287 48.4108 6.71613C48.3015 6.88793 48.1609 7.0285 47.9891 7.13784C47.708 6.96603 47.2863 6.7786 46.724 6.57556C46.1773 6.37251 45.5838 6.27099 44.9434 6.27099C44.2874 6.27099 43.772 6.38813 43.3972 6.62241C43.0223 6.84108 42.8349 7.15346 42.8349 7.55955C42.8349 7.87192 42.9364 8.12964 43.1395 8.33268C43.3581 8.53573 43.7252 8.69973 44.2406 8.82468L45.5994 9.1761C46.7865 9.48848 47.6611 9.91019 48.2234 10.4412C48.7857 10.9723 49.0668 11.6907 49.0668 12.5966Z" fill="#F8F5FA"/>
<path d="M55.9075 15.9469C55.4077 15.9469 54.9392 15.8922 54.5018 15.7829C54.0645 15.6892 53.6897 15.5642 53.3773 15.408V19.8126C53.2679 19.8594 53.1118 19.8985 52.9087 19.9297C52.7213 19.9766 52.5104 20 52.2761 20C51.8232 20 51.4874 19.9141 51.2687 19.7423C51.0501 19.5705 50.9407 19.2737 50.9407 18.852V6.73955C50.9407 6.39594 51.0032 6.12261 51.1282 5.91956C51.2531 5.7009 51.4874 5.49004 51.831 5.287C52.2683 5.03709 52.7994 4.81843 53.4241 4.631C54.0645 4.42796 54.783 4.32643 55.5795 4.32643C56.3917 4.32643 57.1492 4.44358 57.8521 4.67786C58.5549 4.89652 59.1641 5.24014 59.6795 5.70871C60.1949 6.17727 60.601 6.7786 60.8978 7.51269C61.1945 8.23116 61.3429 9.0902 61.3429 10.0898C61.3429 11.0738 61.2023 11.9328 60.9212 12.6669C60.6557 13.3854 60.2808 13.9945 59.7966 14.4943C59.3281 14.9785 58.758 15.3456 58.0864 15.5955C57.4304 15.8298 56.7041 15.9469 55.9075 15.9469ZM55.5327 13.9555C56.5479 13.9555 57.3523 13.6509 57.9458 13.0418C58.5393 12.417 58.8361 11.433 58.8361 10.0898C58.8361 9.40258 58.7502 8.81687 58.5784 8.33268C58.4066 7.8485 58.1723 7.45802 57.8755 7.16126C57.5944 6.84889 57.2508 6.63022 56.8447 6.50527C56.4542 6.3647 56.0325 6.29442 55.5795 6.29442C55.0797 6.29442 54.6502 6.35689 54.291 6.48184C53.9474 6.59117 53.6428 6.72394 53.3773 6.88012V13.3229C53.6428 13.5103 53.9552 13.6665 54.3144 13.7915C54.6736 13.9008 55.0797 13.9555 55.5327 13.9555Z" fill="#F8F5FA"/>
<path d="M79.7507 12.4092C79.7507 12.9715 79.9147 13.3698 80.2427 13.6041C80.5707 13.8383 81.0315 13.9555 81.625 13.9555C81.8905 13.9555 82.1717 13.9164 82.4684 13.8383C82.7652 13.7602 83.0229 13.6665 83.2416 13.5572C83.3509 13.6822 83.4446 13.8227 83.5227 13.9789C83.6164 14.1351 83.6633 14.3225 83.6633 14.5412C83.6633 14.9473 83.4524 15.2831 83.0307 15.5486C82.6246 15.8141 81.9999 15.9469 81.1564 15.9469C79.985 15.9469 79.0479 15.6892 78.345 15.1738C77.6578 14.6427 77.3142 13.7759 77.3142 12.5732V1.63217C77.4235 1.60094 77.5797 1.56189 77.7828 1.51503C77.9858 1.46818 78.2045 1.44475 78.4387 1.44475C78.8917 1.44475 79.2197 1.53065 79.4227 1.70246C79.6414 1.87427 79.7507 2.16322 79.7507 2.56931V4.88871H83.3821C83.4446 4.98243 83.4993 5.11519 83.5461 5.287C83.6086 5.45881 83.6398 5.63842 83.6398 5.82585C83.6398 6.49746 83.3509 6.83327 82.773 6.83327H79.7507V12.4092Z" fill="#F8F5FA"/>
</svg>
